<?xml version="1.0" encoding="UTF-8"?>
<svg width="752pt" height="752pt" version="1.1" viewBox="0 0 752 752" xmlns="http://www.w3.org/2000/svg">
 <path d="m169.99 498.18c14.207 0 24.152 3.7891 35.52 8.5234 17.996 7.1055 43.098 17.051 101.35 17.051h5.6836 156.28c8.9961 0 16.102-7.1055 16.102-16.102s-7.1055-16.102-16.102-16.102h-109.87c-3.7891 0-7.1055-3.3164-7.1055-7.1055 0-3.7891 3.3164-7.1055 7.1055-7.1055h157.7c8.9961 0 16.102-7.1055 16.102-16.102 0-8.9961-7.1055-16.102-16.102-16.102l-157.7 0.003906c-3.7891 0-7.1055-3.3164-7.1055-7.1055 0-3.7891 3.3164-7.1055 7.1055-7.1055h185.17c8.9961 0 16.102-7.1055 16.102-16.102 0-8.9961-7.1055-16.102-16.102-16.102h-20.363l-163.39 0.003906c-3.7891 0-7.1055-3.3164-7.1055-7.1055 0-3.7891 3.3164-7.1055 7.1055-7.1055h163.86c8.9961 0 16.102-7.1055 16.102-16.102s-7.1055-16.102-16.102-16.102l-240.11 0.003907c-8.5234 12.785-14.68 18.469-15.156 18.941-2.8398 2.8398-7.1055 2.3672-9.9453-0.47266-2.8398-2.8398-2.3672-7.5781 0.47266-9.9453 0 0 10.891-10.418 22.73-33.152l22.73-43.098c0.47266-1.4219 0.94531-3.3164 1.4219-5.2109 4.7344-16.574 10.418-35.52-15.156-48.777l-21.312 43.098c0 0.47266-0.47266 0.94531-0.47266 0.94531l-29.828 39.785c-0.47266 0.94531-1.4219 1.4219-2.3672 1.8945-0.47266 0-39.781 22.73-61.566 56.355-0.94531 2.3672-3.3125 3.3125-5.6836 3.3125-1.4219 0-2.8398-0.47266-3.7891-0.94531-3.3164-1.8945-4.2617-6.6289-1.8945-9.9453 21.312-33.152 57.305-55.883 64.879-60.145l27.941-38.359 24.156-48.781c1.4219-3.3164 5.6836-4.7344 8.9961-3.3164 44.043 17.996 34.57 51.148 29.363 68.668-0.47266 1.8945-0.94531 3.7891-1.4219 5.6836 0 0.47266-0.47266 0.94531-0.47266 1.4219l-23.207 43.57c-0.47266 1.4219-1.4219 2.8398-1.8945 3.7891h232.05c16.574 0 30.309 13.734 30.309 30.309 0 6.1562-1.8945 11.84-5.2109 16.574 14.207 2.3672 25.102 15.156 25.102 29.836 0 16.574-13.734 30.309-30.309 30.309h-1.8945c2.8398 4.7344 4.7344 10.418 4.7344 16.102 0 16.574-13.734 30.309-30.309 30.309h-22.258c2.8398 4.7344 4.7344 10.418 4.7344 16.102 0 16.574-13.734 30.309-30.309 30.309h-157.7-4.2617c-61.094 0-87.613-10.418-106.55-17.996-10.891-4.2617-18.941-7.5781-30.309-7.5781-3.7891 0-7.1055-3.3164-7.1055-7.1055 0.003906-3.7812 2.8438-6.625 6.6328-6.625z"/>
</svg>
