<?xml version="1.0" encoding="UTF-8"?>
<svg width="752pt" height="752pt" version="1.1" viewBox="0 0 752 752" xmlns="http://www.w3.org/2000/svg">
 <path d="m169.99 442.3c14.207 0 24.152 3.7891 35.992 8.5234 16.102 6.1562 37.414 14.68 82.402 16.574-2.8398-4.7344-4.2617-9.9453-4.2617-16.102 0-14.207 9.9453-26.52 23.207-29.836-3.3164-4.7344-5.2109-10.891-5.2109-17.523 0-9.4727 4.2617-17.996 11.367-23.68-6.6289-5.6836-11.367-14.207-11.367-23.68 0-4.7344 0.94531-8.9961 2.8398-12.785l-10.418 2.3672c-17.523 25.574-39.309 28.887-49.727 28.887-3.3164 0-5.6836-0.47266-5.6836-0.47266-3.7891-0.47266-6.1562-4.2617-5.6836-8.0508 0.47266-3.7891 4.2617-6.6289 8.0508-5.6836 0.94531 0 24.625 3.7891 42.621-24.625 0.94531-1.4219 2.3672-2.8398 4.2617-2.8398l42.148-9.4727c3.3164-0.94531 6.6289 0.94531 8.0508 3.7891 13.734 29.836 27.469 26.047 44.516 21.312l-17.996-33.625s0-0.47266-0.47266-0.47266c-0.94531-1.8945-1.4219-4.2617-2.3672-7.1055-2.8398-8.0508-6.6289-18.941-13.734-22.258-6.6289-3.3164-13.734-1.8945-25.102 0.47266-5.6836 0.94531-11.84 2.3672-18.941 3.3164-14.207 2.8398-28.887 8.5234-44.516 14.68-26.043 10.422-54.93 21.785-89.5 23.68-3.7891 0-7.1055-2.8398-7.5781-6.6289 0-3.7891 2.8398-7.1055 6.6289-7.5781 32.203-1.4219 59.199-12.312 85.246-22.258 16.574-6.6289 31.73-12.785 47.359-15.629h0.47266c6.6289-0.94531 12.785-1.8945 17.996-2.8398 12.312-2.3672 23.207-4.7344 34.098 0.47266 3.3164 1.4219 6.1562 3.7891 8.5234 6.6289h43.57c17.051 0 30.781 13.734 30.781 30.781 0 6.6289-1.8945 12.785-5.6836 17.523 12.785 3.7891 22.73 15.629 22.73 29.363 0 14.207-9.9453 26.52-23.207 29.836 3.3164 4.7344 5.2109 10.891 5.2109 17.523 0 14.207-9.9453 26.52-23.207 29.836 3.3164 4.7344 5.2109 10.891 5.2109 17.523 0 17.051-13.734 30.781-30.781 30.781h-79.09c-62.039 0-88.559-10.418-107.98-17.996-11.363-5.6836-19.414-8.5234-30.781-8.5234-3.7891 0-7.1016-3.3164-7.1016-7.1055s3.3125-7.1016 7.1016-7.1016zm236.79-148.71h-35.047c1.4219 3.3164 2.8398 7.1055 3.7891 9.9453 0.94531 2.3672 1.4219 4.2617 1.8945 5.6836l9.4727 17.523h19.891c8.9961 0 16.574-7.5781 16.574-16.574-0.47266-9-7.5781-16.578-16.574-16.578zm33.148 63.934c0-8.9961-7.5781-16.574-16.574-16.574h-29.363l5.2109 9.4727c0.94531 1.8945 0.94531 4.2617 0 6.1562-0.94531 1.8945-2.8398 3.3164-4.7344 3.7891-2.3672 0.47266-4.7344 1.4219-7.5781 1.8945-17.051 4.7344-39.309 11.367-58.25-21.785-7.5781 1.4219-13.262 8.0508-13.262 16.102 0 8.9961 7.5781 16.574 16.574 16.574 0.94531 0 1.4219 0 2.3672 0.47266h89.035c9 0 16.574-7.1016 16.574-16.102zm-17.996 46.887c0-8.9961-7.1055-16.102-16.102-16.574h-75.773c-8.0508 0.94531-14.207 8.0508-14.207 16.102 0 8.9961 7.5781 16.574 16.574 16.574h73.406c9 0.47266 16.102-7.1055 16.102-16.102zm-17.996 47.355c0-8.9961-7.5781-16.574-16.574-16.574h-72.93c-8.9961 0-16.574 7.5781-16.574 16.574 0 8.5234 6.6289 15.629 15.156 16.102h74.824c8.9961 0 16.098-7.1016 16.098-16.102z"/>
</svg>
