<?xml version="1.0" encoding="UTF-8"?>
<svg width="752pt" height="752pt" version="1.1" viewBox="0 0 752 752" xmlns="http://www.w3.org/2000/svg">
 <path d="m387.37 289.81 132.13-30.309c7.1055-1.8945 14.68-0.94531 20.836 2.8398 6.6289 3.7891 11.367 9.9453 13.262 17.051 3.7891 15.156-4.7344 30.309-19.418 34.57l-114.61 32.203 127.87 23.68c8.0508 1.4219 15.156 5.6836 19.891 12.785 4.7344 6.6289 6.6289 14.68 5.2109 22.73-1.4219 8.0508-5.6836 15.156-12.785 19.891-6.6289 4.7344-14.68 6.6289-22.73 5.2109l-101.82-17.996v3.7891c0 14.207-9.9453 26.52-23.207 29.363 3.3164 4.7344 5.2109 10.891 5.2109 17.051 0 17.051-13.734 30.309-30.309 30.309h-78.613c-61.566 0-88.086-10.418-107.5-17.996-10.891-4.2617-18.941-7.5781-30.309-7.5781-3.7891 0-7.1055-3.3164-7.1055-7.1055s3.3164-7.1055 7.1055-7.1055c14.207 0 24.152 3.7891 35.52 8.5234 16.102 6.1562 37.414 14.68 81.457 16.574-2.8398-4.7344-4.2617-9.9453-4.2617-15.629 0-14.207 9.9453-26.52 23.207-29.363-3.3164-4.7344-5.2109-10.891-5.2109-17.051 0-17.051 13.734-30.309 30.309-30.309h40.254c-12.312-8.5234-18.941-23.207-24.625-36.465l-32.676-10.418c-7.1055 35.52-53.516 50.199-55.41 50.672-3.7891 0.94531-7.5781-0.94531-8.9961-4.7344-0.94531-3.7891 0.94531-7.5781 4.7344-8.9961 0.47266 0 46.41-14.207 46.41-46.41 0-2.3672 0.94531-4.2617 2.8398-5.6836 1.8945-1.4219 4.2617-1.8945 6.1562-0.94531l44.043 14.207c1.8945 0.47266 3.7891 1.8945 4.2617 3.7891 12.781 28.891 22.254 42.625 48.301 35.047l-17.996-45.465c-2.8438-6.6289-6.6328-11.363-13.262-16.098l-45.465-20.836c-8.0508-2.3672-11.367-2.3672-20.836-2.3672h-0.94531c-50.672 1.4219-77.195 13.262-98.504 22.73-13.734 6.1562-25.574 11.367-39.781 11.367-3.7891 0-7.1055-3.3164-7.1055-7.1055 0-3.7891 3.3164-7.1055 7.1055-7.1055 11.367 0 20.836-4.2617 34.098-9.9453 21.312-9.4727 50.199-22.258 103.71-24.152h1.4219c10.418 0 15.156 0 25.574 3.3164 0.47266 0 0.47266 0 0.94531 0.47266l26.52 12.312h0.47266zm-73.879 156.76c-8.9961 0-16.102 7.1055-16.102 16.102 0 8.5234 6.6289 15.629 14.68 16.102h74.352c8.9961 0 16.102-7.1055 16.102-16.102 0-8.9961-7.1055-16.102-16.102-16.102zm17.996-46.887c-8.9961 0-16.102 7.1055-16.102 16.102s7.1055 16.102 16.102 16.102h72.934c8.9961 0 16.102-7.1055 16.102-16.102s-7.1055-16.102-16.102-16.102zm90.93-22.258c0.47266 1.8945 0.47266 3.7891 0 5.6836-0.94531 1.8945-2.3672 3.3164-3.7891 3.7891-0.94531 0.47266-1.8945 0.47266-2.3672 0.94531 4.7344 1.8945 8.5234 5.2109 11.84 8.9961l110.82 19.418c4.2617 0.94531 8.5234 0 12.312-2.8398 3.7891-2.3672 6.1562-6.1562 6.6289-10.418 0.94531-4.2617 0-8.5234-2.8398-12.312-2.3672-3.7891-6.1562-6.1562-10.418-6.6289l-128.81-23.68zm-20.367-52.094 3.7891 9.9453 124.08-35.047c7.1055-1.8945 11.84-9.9453 9.4727-17.051-0.94531-3.7891-3.3164-6.6289-6.6289-8.5234-3.3164-1.8945-6.6289-2.3672-10.418-1.4219l-132.6 30.309h-0.94531l-3.3203 0.95313c7.5781 5.6797 12.785 12.312 16.574 20.836z"/>
</svg>
